<svg width="30" height="30" viewBox="0 0 30 30" fill="none" xmlns="http://www.w3.org/2000/svg">
<path fill-rule="evenodd" clip-rule="evenodd" d="M8.49927 30H21.4992C26.5847 30 30 26.4328 30 21.125V8.87508C30 3.56716 26.5847 0 21.5007 0H8.49927C3.41535 0 0 3.56716 0 8.87508V21.125C0 26.4328 3.41535 30 8.49927 30ZM9.74829 13.5C7.68032 13.5 6 11.8174 6 9.75C6 7.68259 7.68032 6 9.74829 6C11.8148 6 13.4965 7.68259 13.4965 9.75C13.4965 11.8174 11.8148 13.5 9.74829 13.5ZM26.7312 19.401C27.2336 20.6889 26.9725 22.2369 26.4355 23.5124C25.7991 25.0294 24.5803 26.178 23.0448 26.6796C22.363 26.9025 21.648 27 20.9346 27H8.29296C7.03498 27 5.92182 26.6982 5.00925 26.1362C4.43758 25.7834 4.33653 24.969 4.76037 24.4412C5.4693 23.5588 6.16918 22.6734 6.8751 21.7801C8.22057 20.0712 9.12709 19.5759 10.1347 20.0109C10.5434 20.1905 10.9537 20.4597 11.3761 20.7446C12.5013 21.5093 14.0655 22.5603 16.1259 21.4195C17.5359 20.6298 18.3537 19.2752 19.0659 18.0956L19.0778 18.0759C19.1283 17.9931 19.1782 17.9103 19.2281 17.8278C19.4674 17.4318 19.7036 17.041 19.9707 16.681C20.3057 16.2306 21.5469 14.822 23.1549 15.8252C24.1791 16.4566 25.0404 17.3112 25.962 18.226C26.3135 18.5758 26.5638 18.9736 26.7312 19.401Z" fill="#E4E4E4"/>
</svg>

