<svg width="84" height="84" viewBox="0 0 84 84" fill="none" xmlns="http://www.w3.org/2000/svg">
<path fill-rule="evenodd" clip-rule="evenodd" d="M23.9424 83.6667H60.0533C74.1796 83.6667 83.6667 73.7579 83.6667 59.0138V24.9863C83.6667 10.2421 74.1796 0.333344 60.0575 0.333344H23.9424C9.82042 0.333344 0.333336 10.2421 0.333336 24.9863V59.0138C0.333336 73.7579 9.82042 83.6667 23.9424 83.6667ZM27.4119 37.8333C21.6675 37.8333 17 33.1595 17 27.4167C17 21.6739 21.6675 17 27.4119 17C33.1521 17 37.8238 21.6739 37.8238 27.4167C37.8238 33.1595 33.1521 37.8333 27.4119 37.8333ZM74.5867 54.225C75.9821 57.8025 75.2571 62.1025 73.7654 65.6454C71.9975 69.8596 68.6121 73.05 64.3467 74.4434C62.4529 75.0625 60.4667 75.3334 58.485 75.3334H23.3693C19.875 75.3334 16.7828 74.495 14.2479 72.9338C12.66 71.9538 12.3793 69.6917 13.5566 68.2254C15.5258 65.7746 17.47 63.315 19.4308 60.8338C23.1683 56.0867 25.6864 54.7108 28.4852 55.9192C29.6207 56.4179 30.7603 57.1659 31.9335 57.9571C35.0592 60.0813 39.4042 63.0008 45.1275 59.8321C49.0442 57.6383 51.3158 53.8754 53.2942 50.5988L53.3271 50.5442C53.4675 50.3142 53.6063 50.0842 53.7446 49.855C54.4096 48.755 55.0654 47.6696 55.8075 46.6696C56.7379 45.4183 60.1858 41.5054 64.6525 44.2921C67.4975 46.0463 69.89 48.42 72.45 50.9613C73.4263 51.9329 74.1217 53.0379 74.5867 54.225Z" fill="#E4E4E4"/>
</svg>
