    <svg
      width="87"
      height="11"
      viewBox="0 0 87 11"
      fill="none"
      xmlns="http://www.w3.org/2000/svg"
    >
      <path
        d="M1.254 10H0.092V0.661999H6.21V1.698H1.254V4.708H6.112V5.744H1.254V10ZM10.7013 10.168C8.64327 10.168 7.35527 8.572 7.35527 6.612C7.35527 4.652 8.64327 3.07 10.7013 3.07C12.7593 3.07 14.0473 4.652 14.0473 6.612C14.0473 8.572 12.7593 10.168 10.7013 10.168ZM10.7013 9.23C12.1433 9.23 12.9413 7.998 12.9413 6.612C12.9413 5.24 12.1433 4.008 10.7013 4.008C9.25927 4.008 8.44727 5.24 8.44727 6.612C8.44727 7.998 9.25927 9.23 10.7013 9.23ZM16.809 10H15.759V3.238H16.809V4.33C17.355 3.616 18.139 3.098 19.063 3.098V4.176C18.937 4.148 18.811 4.134 18.643 4.134C17.999 4.134 17.117 4.666 16.809 5.212V10ZM33.1735 10H32.0115V2.314L28.8335 10H28.3575L25.1935 2.314V10H24.0315V0.661999H25.6975L28.5955 7.69L31.5075 0.661999H33.1735V10ZM40.5878 10H39.5378V9.23C38.9778 9.846 38.2078 10.168 37.2978 10.168C36.1498 10.168 34.9318 9.398 34.9318 7.928C34.9318 6.416 36.1498 5.702 37.2978 5.702C38.2218 5.702 38.9918 5.996 39.5378 6.626V5.408C39.5378 4.498 38.8098 3.98 37.8298 3.98C37.0178 3.98 36.3598 4.274 35.7578 4.918L35.2678 4.19C35.9958 3.434 36.8638 3.07 37.9698 3.07C39.3978 3.07 40.5878 3.714 40.5878 5.352V10ZM37.6758 9.412C38.4178 9.412 39.1318 9.132 39.5378 8.572V7.298C39.1318 6.738 38.4178 6.458 37.6758 6.458C36.6958 6.458 36.0098 7.074 36.0098 7.942C36.0098 8.796 36.6958 9.412 37.6758 9.412ZM43.2106 2.272C42.8326 2.272 42.5106 1.964 42.5106 1.572C42.5106 1.18 42.8326 0.857999 43.2106 0.857999C43.6026 0.857999 43.9246 1.18 43.9246 1.572C43.9246 1.964 43.6026 2.272 43.2106 2.272ZM43.7426 10H42.6926V3.238H43.7426V10ZM51.4511 10H50.4011V5.576C50.4011 4.386 49.7991 4.008 48.8891 4.008C48.0631 4.008 47.2791 4.512 46.8871 5.058V10H45.8371V3.238H46.8871V4.218C47.3631 3.658 48.2871 3.07 49.2951 3.07C50.7091 3.07 51.4511 3.784 51.4511 5.254V10ZM55.69 10.168C54.584 10.168 53.646 9.832 52.96 9.104L53.506 8.348C53.954 8.866 54.808 9.314 55.732 9.314C56.768 9.314 57.328 8.824 57.328 8.152C57.328 6.514 53.142 7.522 53.142 5.016C53.142 3.966 54.052 3.07 55.662 3.07C56.81 3.07 57.622 3.504 58.168 4.05L57.678 4.778C57.272 4.288 56.53 3.924 55.662 3.924C54.738 3.924 54.164 4.386 54.164 4.988C54.164 6.472 58.35 5.492 58.35 8.124C58.35 9.258 57.44 10.168 55.69 10.168ZM61.7639 10.168C60.7699 10.168 60.2659 9.594 60.2659 8.586V4.162H59.1459V3.238H60.2659V1.39H61.3159V3.238H62.6879V4.162H61.3159V8.362C61.3159 8.866 61.5399 9.23 62.0019 9.23C62.2959 9.23 62.5759 9.104 62.7159 8.95L63.0239 9.734C62.7579 9.986 62.3799 10.168 61.7639 10.168ZM67.1251 10.168C65.0671 10.168 63.7791 8.572 63.7791 6.612C63.7791 4.652 65.0671 3.07 67.1251 3.07C69.1831 3.07 70.4711 4.652 70.4711 6.612C70.4711 8.572 69.1831 10.168 67.1251 10.168ZM67.1251 9.23C68.5671 9.23 69.3651 7.998 69.3651 6.612C69.3651 5.24 68.5671 4.008 67.1251 4.008C65.6831 4.008 64.8711 5.24 64.8711 6.612C64.8711 7.998 65.6831 9.23 67.1251 9.23ZM77.7968 10H76.7468V5.576C76.7468 4.386 76.1448 4.008 75.2348 4.008C74.4088 4.008 73.6248 4.512 73.2328 5.058V10H72.1828V3.238H73.2328V4.218C73.7088 3.658 74.6328 3.07 75.6408 3.07C77.0548 3.07 77.7968 3.784 77.7968 5.254V10ZM82.9458 10.168C80.9438 10.168 79.5018 8.726 79.5018 6.612C79.5018 4.652 80.9017 3.07 82.8338 3.07C84.8778 3.07 86.0818 4.666 86.0818 6.696V6.962H80.6078C80.6917 8.236 81.5878 9.3 83.0438 9.3C83.8138 9.3 84.5978 8.992 85.1298 8.446L85.6338 9.132C84.9618 9.804 84.0518 10.168 82.9458 10.168ZM85.0458 6.192C85.0318 5.184 84.3598 3.938 82.8198 3.938C81.3778 3.938 80.6638 5.156 80.6078 6.192H85.0458Z"
        fill="white"
      />
    </svg>