<svg width="14" height="18" viewBox="0 0 14 18" fill="none" xmlns="http://www.w3.org/2000/svg">
<path d="M11.4956 1.71429C10.5801 0.896451 9.45899 0.343732 8.25282 0.115618C7.04664 -0.112497 5.80109 -0.00736837 4.65021 0.419689C3.49933 0.846745 2.4867 1.57956 1.72129 2.53927C0.955881 3.49898 0.466675 4.64926 0.306318 5.86629C0.162303 6.93343 0.277482 8.01956 0.642108 9.03275C1.00673 10.0459 1.61007 10.9564 2.40107 11.687C2.89022 12.116 3.28493 12.6419 3.56018 13.2314C3.83543 13.8209 3.98523 14.4611 4.00007 15.1115V15.2323C4.00086 15.966 4.29269 16.6695 4.81153 17.1883C5.33036 17.7072 6.03383 17.999 6.76757 17.9998H7.23257C7.96631 17.999 8.66977 17.7072 9.18861 17.1883C9.70744 16.6695 9.99927 15.966 10.0001 15.2323V14.8205C10.0113 14.2456 10.1466 13.6799 10.3967 13.1622C10.6468 12.6444 11.0057 12.1867 11.4491 11.8205C12.168 11.1909 12.7449 10.4156 13.1417 9.54615C13.5384 8.67668 13.7458 7.73284 13.7502 6.77715C13.7546 5.82146 13.5558 4.87575 13.1672 4.00266C12.7785 3.12958 12.2087 2.34905 11.4956 1.71279V1.71429ZM7.23257 16.4998H6.76757C6.43153 16.4994 6.10937 16.3657 5.87175 16.1281C5.63413 15.8905 5.50047 15.5683 5.50007 15.2323C5.50007 15.2323 5.49482 15.0373 5.49407 14.9998H8.50007V15.2323C8.49967 15.5683 8.366 15.8905 8.12839 16.1281C7.89077 16.3657 7.56861 16.4994 7.23257 16.4998ZM10.4576 10.694C9.60364 11.4347 8.98695 12.4106 8.68457 13.4998H7.75007V8.11179C8.18725 7.95723 8.566 7.67137 8.8345 7.29332C9.10301 6.91527 9.24815 6.46349 9.25007 5.99979C9.25007 5.80088 9.17105 5.61012 9.0304 5.46946C8.88975 5.32881 8.69898 5.24979 8.50007 5.24979C8.30116 5.24979 8.11039 5.32881 7.96974 5.46946C7.82909 5.61012 7.75007 5.80088 7.75007 5.99979C7.75007 6.19871 7.67105 6.38947 7.5304 6.53012C7.38975 6.67078 7.19898 6.74979 7.00007 6.74979C6.80116 6.74979 6.61039 6.67078 6.46974 6.53012C6.32909 6.38947 6.25007 6.19871 6.25007 5.99979C6.25007 5.80088 6.17105 5.61012 6.0304 5.46946C5.88975 5.32881 5.69898 5.24979 5.50007 5.24979C5.30116 5.24979 5.11039 5.32881 4.96974 5.46946C4.82909 5.61012 4.75007 5.80088 4.75007 5.99979C4.75199 6.46349 4.89713 6.91527 5.16563 7.29332C5.43414 7.67137 5.81289 7.95723 6.25007 8.11179V13.4998H5.25857C4.92031 12.3817 4.28591 11.3759 3.42257 10.589C2.68978 9.90624 2.16761 9.02807 1.91767 8.05816C1.66773 7.08825 1.70045 6.06708 2.01198 5.11516C2.3235 4.16325 2.90082 3.32031 3.67582 2.68582C4.45081 2.05133 5.39114 1.65177 6.38582 1.53429C6.59202 1.51128 6.79934 1.49976 7.00682 1.49979C8.295 1.49596 9.53857 1.97126 10.4958 2.83329C11.0506 3.32799 11.4939 3.93496 11.7963 4.61396C12.0987 5.29297 12.2533 6.02849 12.2499 6.77178C12.2465 7.51508 12.0851 8.24916 11.7765 8.92536C11.4679 9.60157 11.0191 10.2044 10.4598 10.694H10.4576Z" fill="white"/>
</svg>
